<svg width="106" height="70" viewBox="0 0 106 70" fill="none" xmlns="http://www.w3.org/2000/svg">
<path d="M10.6951 36.5473C6.70224 38.5545 1.90135 38.22 0 37.8018V70.001H53H106V15.4297C95.5426 -7.65333 84.3722 2.04824 80.0942 9.78439L72.7265 22.5386C69.4783 28.6718 59.4646 38.8891 45.3946 30.6929C31.3247 22.4968 23.5291 25.7446 21.3901 28.393C19.4888 30.2748 14.6879 34.5401 10.6951 36.5473Z" fill="url(#paint0_linear_276_310)"/>
<path d="M1.1398 37.6848C3.00026 38.1016 7.69791 38.4351 11.6049 36.4342C15.5118 34.4334 20.2095 30.1816 22.0699 28.3059C24.1629 25.6659 31.7908 22.4284 45.5582 30.5985C59.3256 38.7686 69.124 28.5837 72.3022 22.4701L79.5115 9.75645C83.6975 2.0449 94.6277 -7.6258 104.86 15.3838" stroke="white" stroke-width="2" stroke-linecap="round"/>
<defs>
<linearGradient id="paint0_linear_276_310" x1="42.7419" y1="-49.999" x2="43.603" y2="83.0028" gradientUnits="userSpaceOnUse">
<stop stop-color="#ECE9FF"/>
<stop offset="0.0001" stop-color="#EDEAFF"/>
<stop offset="0.847197" stop-color="white" stop-opacity="0"/>
</linearGradient>
</defs>
</svg>
