<svg width="18" height="21" viewBox="0 0 18 21" fill="none" xmlns="http://www.w3.org/2000/svg">
<path d="M9 10.5C10.1935 10.5 11.3381 10.0259 12.182 9.18198C13.0259 8.33807 13.5 7.19347 13.5 6C13.5 4.80653 13.0259 3.66193 12.182 2.81802C11.3381 1.97411 10.1935 1.5 9 1.5C7.80653 1.5 6.66193 1.97411 5.81802 2.81802C4.97411 3.66193 4.5 4.80653 4.5 6C4.5 7.19347 4.97411 8.33807 5.81802 9.18198C6.66193 10.0259 7.80653 10.5 9 10.5ZM9 12C7.4087 12 5.88258 11.3679 4.75736 10.2426C3.63214 9.11742 3 7.5913 3 6C3 4.4087 3.63214 2.88258 4.75736 1.75736C5.88258 0.632141 7.4087 0 9 0C10.5913 0 12.1174 0.632141 13.2426 1.75736C14.3679 2.88258 15 4.4087 15 6C15 7.5913 14.3679 9.11742 13.2426 10.2426C12.1174 11.3679 10.5913 12 9 12ZM16.5 19.5V17.25C16.5 16.6533 16.2629 16.081 15.841 15.659C15.419 15.2371 14.8467 15 14.25 15H3.75C3.15326 15 2.58097 15.2371 2.15901 15.659C1.73705 16.081 1.5 16.6533 1.5 17.25V19.5C1.5 19.6989 1.42098 19.8897 1.28033 20.0303C1.13968 20.171 0.948912 20.25 0.75 20.25C0.551088 20.25 0.360322 20.171 0.21967 20.0303C0.0790178 19.8897 0 19.6989 0 19.5V17.25C0 16.2554 0.395088 15.3016 1.09835 14.5983C1.80161 13.8951 2.75544 13.5 3.75 13.5H14.25C15.2446 13.5 16.1984 13.8951 16.9016 14.5983C17.6049 15.3016 18 16.2554 18 17.25V19.5C18 19.6989 17.921 19.8897 17.7803 20.0303C17.6397 20.171 17.4489 20.25 17.25 20.25C17.0511 20.25 16.8603 20.171 16.7197 20.0303C16.579 19.8897 16.5 19.6989 16.5 19.5Z" fill="#68188B"/>
</svg>
