<svg width="15" height="18" viewBox="0 0 15 18" fill="none" xmlns="http://www.w3.org/2000/svg">
<path d="M0.750183 10.3501H2.66621C2.90141 10.3501 3.13342 10.4029 3.34382 10.5053L4.97744 11.2957C5.18785 11.3973 5.41985 11.4501 5.65585 11.4501H6.48946C7.29587 11.4501 7.95028 12.083 7.95028 12.8638C7.95028 12.8958 7.92868 12.923 7.89748 12.9318L5.86465 13.4942C5.49989 13.5949 5.11094 13.5597 4.77024 13.395L3.02381 12.5502" stroke="white" stroke-width="1.5" stroke-linecap="round" stroke-linejoin="round"/>
<path d="M7.95028 12.3502L11.6247 11.2213C11.9446 11.1232 12.2873 11.1286 12.604 11.2368C12.9206 11.3449 13.195 11.5504 13.388 11.8238C13.6832 12.2318 13.5632 12.8174 13.1328 13.0654L7.12067 16.535C6.93268 16.6438 6.72451 16.7131 6.50885 16.7389C6.29319 16.7646 6.07455 16.7461 5.86625 16.6846L0.750183 15.1662M7.95028 3.15003H9.55031M9.55031 8.75011H7.95028C6.44146 8.75011 5.68785 8.75011 5.21905 8.2813C4.75024 7.8125 4.75024 7.05889 4.75024 5.55007V3.95004C4.75024 2.44122 4.75024 1.68761 5.21905 1.21881C5.68785 0.75 6.44146 0.75 7.95028 0.75H9.55031C11.0591 0.75 11.8127 0.75 12.2815 1.21881C12.7504 1.68761 12.7504 2.44122 12.7504 3.95004V5.55007C12.7504 7.05889 12.7504 7.8125 12.2815 8.2813C11.8127 8.75011 11.0591 8.75011 9.55031 8.75011Z" stroke="white" stroke-width="1.5" stroke-linecap="round" stroke-linejoin="round"/>
</svg>
