<svg width="22" height="22" viewBox="0 0 22 22" fill="none" xmlns="http://www.w3.org/2000/svg">
<path fill-rule="evenodd" clip-rule="evenodd" d="M10.7502 1.5C13.2034 1.5 15.5562 2.47455 17.2909 4.20926C19.0256 5.94397 20.0002 8.29675 20.0002 10.75C20.0002 10.9489 20.0792 11.1397 20.2199 11.2803C20.3605 11.421 20.5513 11.5 20.7502 11.5C20.9491 11.5 21.1399 11.421 21.2805 11.2803C21.4212 11.1397 21.5002 10.9489 21.5002 10.75C21.5002 4.813 16.6872 0 10.7502 0C10.5513 0 10.3605 0.0790177 10.2199 0.21967C10.0792 0.360322 10.0002 0.551088 10.0002 0.75C10.0002 0.948912 10.0792 1.13968 10.2199 1.28033C10.3605 1.42098 10.5513 1.5 10.7502 1.5ZM10.7502 7C10.9491 7 11.1399 7.07902 11.2805 7.21967C11.4212 7.36032 11.5002 7.55109 11.5002 7.75V11H14.7502C14.9491 11 15.1399 11.079 15.2805 11.2197C15.4212 11.3603 15.5002 11.5511 15.5002 11.75C15.5002 11.9489 15.4212 12.1397 15.2805 12.2803C15.1399 12.421 14.9491 12.5 14.7502 12.5H10.7502C10.5513 12.5 10.3605 12.421 10.2199 12.2803C10.0792 12.1397 10.0002 11.9489 10.0002 11.75V7.75C10.0002 7.55109 10.0792 7.36032 10.2199 7.21967C10.3605 7.07902 10.5513 7 10.7502 7Z" fill="white"/>
<path opacity="0.5" fill-rule="evenodd" clip-rule="evenodd" d="M7.8502 1.14801C7.88569 1.23993 7.90272 1.33795 7.90032 1.43645C7.89791 1.53496 7.87612 1.63203 7.83619 1.72211C7.79626 1.81219 7.73896 1.89352 7.66759 1.96145C7.59621 2.02938 7.51214 2.08258 7.4202 2.11801C7.27878 2.17254 7.13874 2.23055 7.0002 2.29201C6.90987 2.33398 6.81209 2.35754 6.71256 2.36131C6.61303 2.36509 6.51375 2.349 6.4205 2.31399C6.32726 2.27897 6.24192 2.22574 6.16947 2.15739C6.09703 2.08904 6.03892 2.00695 5.99854 1.9159C5.95816 1.82485 5.93632 1.72667 5.9343 1.62709C5.93228 1.52751 5.95011 1.42852 5.98675 1.33591C6.0234 1.2433 6.07812 1.15891 6.14774 1.08767C6.21735 1.01644 6.30045 0.95978 6.3922 0.921008C6.5522 0.849008 6.7152 0.782008 6.8802 0.718008C6.97212 0.682515 7.07013 0.665484 7.16864 0.667887C7.26715 0.67029 7.36421 0.692081 7.4543 0.732014C7.54438 0.771947 7.62571 0.82924 7.69364 0.900618C7.76157 0.971996 7.81477 1.05606 7.8502 1.14801ZM4.3982 2.99101C4.53525 3.13505 4.6095 3.32762 4.60463 3.52639C4.59975 3.72516 4.51615 3.91386 4.3722 4.05101C4.2622 4.15601 4.1552 4.26301 4.0512 4.37201C3.9833 4.44338 3.90202 4.50068 3.81198 4.54064C3.72194 4.5806 3.62491 4.60243 3.52643 4.60489C3.42796 4.60736 3.32996 4.5904 3.23804 4.55498C3.14612 4.51957 3.06207 4.4664 2.9907 4.39851C2.91932 4.33061 2.86202 4.24933 2.82206 4.15929C2.7821 4.06925 2.76027 3.97222 2.75781 3.87375C2.75535 3.77527 2.77231 3.67727 2.80772 3.58535C2.84313 3.49343 2.8963 3.40938 2.9642 3.33801C3.0862 3.21101 3.2102 3.08601 3.3372 2.96501C3.48124 2.82795 3.67381 2.7537 3.87258 2.75858C4.07135 2.76345 4.26105 2.84705 4.3982 2.99101ZM1.9102 6.01001C2.00022 6.04999 2.0815 6.10731 2.14937 6.1787C2.21724 6.25009 2.27038 6.33416 2.30576 6.42609C2.34115 6.51802 2.35807 6.61602 2.35557 6.7145C2.35307 6.81297 2.33119 6.90999 2.2912 7.00001C2.2302 7.13801 2.1712 7.27801 2.1172 7.42001C2.04245 7.6011 1.89981 7.74576 1.71978 7.82304C1.53975 7.90032 1.33663 7.90409 1.15386 7.83354C0.971086 7.76299 0.823175 7.62373 0.741759 7.44553C0.660343 7.26734 0.651885 7.06436 0.718195 6.88001C0.781195 6.71501 0.848195 6.55201 0.920195 6.39201C0.960174 6.30198 1.0175 6.22071 1.08889 6.15284C1.16028 6.08496 1.24434 6.03182 1.33627 5.99644C1.42821 5.96106 1.52621 5.94414 1.62468 5.94664C1.72316 5.94914 1.82018 5.97001 1.9102 6.01001ZM0.771195 9.75501C0.869695 9.75734 0.96677 9.77907 1.05687 9.81893C1.14698 9.8588 1.22834 9.91602 1.29632 9.98734C1.3643 10.0587 1.41755 10.1427 1.45305 10.2346C1.48855 10.3265 1.50559 10.4245 1.5032 10.523C1.49953 10.675 1.49953 10.827 1.5032 10.979C1.50556 11.0775 1.4885 11.1755 1.45299 11.2674C1.41749 11.3593 1.36423 11.4433 1.29625 11.5146C1.22828 11.5859 1.14693 11.6432 1.05684 11.683C0.966748 11.7229 0.869687 11.7446 0.771195 11.747C0.672704 11.7494 0.574711 11.7323 0.482813 11.6968C0.390914 11.6613 0.306908 11.608 0.235593 11.5401C0.164278 11.4721 0.107049 11.3907 0.067174 11.3007C0.0272991 11.2106 0.00555908 11.1135 0.00319529 11.015C-0.0010651 10.8387 -0.0010651 10.6623 0.00319529 10.486C0.00817324 10.2873 0.0918658 10.0986 0.235878 9.96153C0.37989 9.82446 0.572436 9.75017 0.771195 9.75501ZM20.3532 13.65C20.5387 13.7218 20.6881 13.8643 20.7686 14.0462C20.849 14.2281 20.8539 14.4345 20.7822 14.62C20.7182 14.784 20.6522 14.947 20.5802 15.107C20.5414 15.1988 20.4848 15.2819 20.4135 15.3515C20.3423 15.4211 20.2579 15.4758 20.1653 15.5125C20.0727 15.5491 19.9737 15.5669 19.8741 15.5649C19.7745 15.5629 19.6764 15.541 19.5853 15.5007C19.4943 15.4603 19.4122 15.4022 19.3438 15.3297C19.2755 15.2573 19.2222 15.1719 19.1872 15.0787C19.1522 14.9855 19.1361 14.8862 19.1399 14.7866C19.1437 14.6871 19.1672 14.5893 19.2092 14.499C19.2702 14.361 19.3292 14.221 19.3832 14.079C19.4549 13.8935 19.5974 13.7441 19.7793 13.6636C19.9613 13.5832 20.1677 13.5783 20.3532 13.65ZM1.1482 13.65C1.24012 13.6145 1.33813 13.5975 1.43664 13.5999C1.53515 13.6023 1.63221 13.6241 1.7223 13.664C1.81238 13.7039 1.89371 13.7612 1.96164 13.8326C2.02957 13.904 2.08277 13.9881 2.1182 14.08C2.1722 14.221 2.2302 14.36 2.2912 14.499C2.33572 14.5896 2.3615 14.6883 2.36698 14.7891C2.37246 14.8899 2.35753 14.9908 2.32308 15.0857C2.28864 15.1806 2.23539 15.2676 2.16652 15.3414C2.09766 15.4152 2.0146 15.4744 1.92232 15.5153C1.83004 15.5563 1.73044 15.5782 1.62949 15.5797C1.52855 15.5812 1.42833 15.5624 1.33484 15.5243C1.24136 15.4861 1.15654 15.4295 1.08546 15.3578C1.01438 15.2861 0.958511 15.2008 0.921195 15.107C0.848998 14.9466 0.781305 14.7842 0.718195 14.62C0.682702 14.5281 0.66567 14.4301 0.668074 14.3316C0.670477 14.2331 0.692267 14.136 0.732201 14.0459C0.772134 13.9558 0.829427 13.8745 0.900805 13.8066C0.972183 13.7386 1.05625 13.6854 1.1482 13.65ZM18.5102 17.102C18.8102 17.387 18.8212 17.862 18.5362 18.162C18.4149 18.2894 18.2906 18.4137 18.1632 18.535C18.0919 18.603 18.0079 18.6562 17.916 18.6917C17.8241 18.7272 17.7261 18.7443 17.6277 18.7419C17.5292 18.7395 17.4321 18.7178 17.3421 18.6779C17.252 18.638 17.1707 18.5808 17.1027 18.5095C17.0347 18.4382 16.9815 18.3542 16.946 18.2623C16.9105 18.1704 16.8934 18.0725 16.8958 17.974C16.8982 17.8755 16.9199 17.7785 16.9598 17.6884C16.9997 17.5983 17.0569 17.517 17.1282 17.449C17.2382 17.345 17.3452 17.237 17.4492 17.128C17.5863 16.9841 17.775 16.9004 17.9738 16.8956C18.1726 16.8907 18.3662 16.965 18.5102 17.102ZM2.9892 17.102C3.13324 16.965 3.32581 16.8907 3.52458 16.8956C3.72335 16.9004 3.91205 16.9841 4.0492 17.128C4.1542 17.238 4.2612 17.344 4.3712 17.448C4.51534 17.5853 4.59906 17.7741 4.60394 17.9731C4.60881 18.1721 4.53444 18.3649 4.3972 18.509C4.25995 18.6532 4.07106 18.7369 3.87208 18.7417C3.6731 18.7466 3.48034 18.6723 3.3362 18.535C3.20884 18.4137 3.08447 18.2894 2.9632 18.162C2.82614 18.018 2.75189 17.8254 2.75676 17.6266C2.76164 17.4279 2.84524 17.2392 2.9892 17.102ZM6.0102 19.59C6.05008 19.4999 6.10734 19.4185 6.17869 19.3505C6.25004 19.2826 6.33409 19.2293 6.42603 19.1938C6.51797 19.1584 6.616 19.1414 6.71452 19.1438C6.81304 19.1462 6.91012 19.168 7.0002 19.208C7.1382 19.27 7.2782 19.328 7.4192 19.382C7.60485 19.4536 7.75445 19.596 7.83509 19.778C7.91573 19.9599 7.9208 20.1664 7.8492 20.352C7.77759 20.5377 7.63516 20.6873 7.45325 20.7679C7.27134 20.8485 7.06485 20.8536 6.8792 20.782C6.71489 20.7184 6.55217 20.6507 6.3912 20.579C6.30117 20.539 6.2199 20.4817 6.15202 20.4103C6.08415 20.3389 6.03101 20.2549 5.99563 20.1629C5.96025 20.071 5.94332 19.973 5.94582 19.8745C5.94832 19.776 5.9702 19.68 6.0102 19.59ZM15.4882 19.589C15.5282 19.679 15.5501 19.776 15.5526 19.8745C15.5551 19.973 15.5381 20.071 15.5028 20.1629C15.4674 20.2549 15.4142 20.3389 15.3464 20.4103C15.2785 20.4817 15.1972 20.539 15.1072 20.579C14.9472 20.649 14.7842 20.717 14.6192 20.781C14.5273 20.8165 14.4293 20.8335 14.3308 20.831C14.2323 20.8286 14.1352 20.8068 14.0451 20.7669C13.9551 20.727 13.8737 20.6697 13.8058 20.5983C13.7379 20.527 13.6847 20.4429 13.6492 20.351C13.6137 20.2591 13.5967 20.1611 13.5992 20.0626C13.6016 19.9641 13.6234 19.867 13.6633 19.777C13.7439 19.595 13.8935 19.4526 14.0792 19.381C14.2202 19.327 14.3602 19.269 14.4992 19.207C14.681 19.1266 14.8873 19.1217 15.0728 19.1933C15.2582 19.2649 15.4076 19.4073 15.4882 19.589ZM9.7532 20.728C9.75553 20.6295 9.77725 20.5324 9.81712 20.4423C9.85698 20.3522 9.91421 20.2709 9.98553 20.2029C10.0569 20.1349 10.1409 20.0816 10.2328 20.0462C10.3247 20.0107 10.4227 19.9936 10.5212 19.996C10.6732 19.9996 10.8252 19.9996 10.9772 19.996C11.1761 19.9912 11.3688 20.0657 11.5128 20.2029C11.6568 20.3402 11.7404 20.5291 11.7452 20.728C11.75 20.9269 11.6755 21.1196 11.5383 21.2636C11.401 21.4076 11.2121 21.4912 11.0132 21.496C10.8372 21.5002 10.6612 21.5002 10.4852 21.496C10.3867 21.4937 10.2896 21.472 10.1995 21.4321C10.1094 21.3922 10.0281 21.335 9.96007 21.2637C9.89209 21.1924 9.83884 21.1083 9.80334 21.0164C9.76784 20.9245 9.7508 20.8265 9.7532 20.728Z" fill="white"/>
</svg>
