<svg width="20" height="21" viewBox="0 0 20 21" fill="none" xmlns="http://www.w3.org/2000/svg">
<path d="M8.78077 0.38877C9.07719 0.137755 9.45303 0 9.84146 0C10.2299 0 10.6057 0.137755 10.9021 0.38877L19.1034 7.34668C19.285 7.50064 19.4309 7.69229 19.531 7.90831C19.631 8.12434 19.6829 8.35956 19.6829 8.59764V18.8798C19.6829 19.3148 19.5101 19.732 19.2025 20.0396C18.8949 20.3472 18.4777 20.52 18.0427 20.52H11.7551C11.5376 20.52 11.329 20.4336 11.1752 20.2798C11.0214 20.126 10.935 19.9174 10.935 19.6999V12.8655H8.74796V19.6999C8.74796 19.9174 8.66156 20.126 8.50775 20.2798C8.35395 20.4336 8.14535 20.52 7.92784 20.52H1.64024C1.20522 20.52 0.788021 20.3472 0.480416 20.0396C0.172811 19.732 0 19.3148 0 18.8798V8.59764C0 8.1165 0.212138 7.65833 0.579552 7.34668L8.78077 0.38877ZM9.84146 1.63973L1.64024 8.59764V18.8798H7.10772V12.0454C7.10772 11.8279 7.19412 11.6193 7.34793 11.4655C7.50173 11.3117 7.71033 11.2253 7.92784 11.2253H11.7551C11.9726 11.2253 12.1812 11.3117 12.335 11.4655C12.4888 11.6193 12.5752 11.8279 12.5752 12.0454V18.8798H18.0427V8.59764L9.84146 1.63973Z" fill="#F9F9F9"/>
</svg>
