<svg width="20" height="20" viewBox="0 0 20 20" fill="none" xmlns="http://www.w3.org/2000/svg">
<path d="M0.820129 16.1287C0.820129 14.9686 1.28096 13.8561 2.10124 13.0358C2.92152 12.2155 4.03406 11.7547 5.19411 11.7547H13.9421C15.1021 11.7547 16.2147 12.2155 17.0349 13.0358C17.8552 13.8561 18.3161 14.9686 18.3161 16.1287C18.3161 16.7087 18.0856 17.265 17.6755 17.6751C17.2654 18.0853 16.7091 18.3157 16.1291 18.3157H3.00712C2.42709 18.3157 1.87082 18.0853 1.46068 17.6751C1.05054 17.265 0.820129 16.7087 0.820129 16.1287Z" stroke="white" stroke-width="1.64024" stroke-linejoin="round"/>
<path d="M9.5679 7.3811C11.3797 7.3811 12.8484 5.91238 12.8484 4.10061C12.8484 2.28885 11.3797 0.820129 9.5679 0.820129C7.75614 0.820129 6.28741 2.28885 6.28741 4.10061C6.28741 5.91238 7.75614 7.3811 9.5679 7.3811Z" stroke="white" stroke-width="1.64024"/>
</svg>
