<svg width="18" height="12" viewBox="0 0 18 12" fill="none" xmlns="http://www.w3.org/2000/svg">
<path d="M14.5714 1.71429C14.5714 0.771429 13.8 0 12.8571 0H10.2857V1.71429H12.8571V3.98571L9.87429 7.71429H6.85714V3.42857H3.42857C1.53429 3.42857 0 4.96286 0 6.85714V9.42857H1.71429C1.71429 10.8514 2.86286 12 4.28571 12C5.70857 12 6.85714 10.8514 6.85714 9.42857H10.6971L14.5714 4.58571V1.71429ZM1.71429 7.71429V6.85714C1.71429 5.91429 2.48571 5.14286 3.42857 5.14286H5.14286V7.71429H1.71429ZM4.28571 10.2857C3.81429 10.2857 3.42857 9.9 3.42857 9.42857H5.14286C5.14286 9.9 4.75714 10.2857 4.28571 10.2857Z" fill="#FFFDFD"/>
<path d="M2.57141 0.857147H6.85713V2.57143H2.57141V0.857147ZM14.5714 6.85715C13.1486 6.85715 12 8.00572 12 9.42858C12 10.8514 13.1486 12 14.5714 12C15.9943 12 17.1428 10.8514 17.1428 9.42858C17.1428 8.00572 15.9943 6.85715 14.5714 6.85715ZM14.5714 10.2857C14.1 10.2857 13.7143 9.9 13.7143 9.42858C13.7143 8.95715 14.1 8.57143 14.5714 8.57143C15.0428 8.57143 15.4286 8.95715 15.4286 9.42858C15.4286 9.9 15.0428 10.2857 14.5714 10.2857Z" fill="#FFFDFD"/>
</svg>
