<svg width="18" height="19" viewBox="0 0 18 19" fill="none" xmlns="http://www.w3.org/2000/svg">
<path d="M13.371 15.827L16.211 13.031L15.585 12.404L13.371 14.587L12.416 13.612L11.789 14.244L13.371 15.827ZM2.77 4.731H13.232V3.731H2.769L2.77 4.731ZM14 18.116C12.886 18.116 11.941 17.7277 11.165 16.951C10.3883 16.175 10 15.23 10 14.116C10 13.002 10.3883 12.0567 11.165 11.28C11.9417 10.5033 12.8867 10.1153 14 10.116C15.1133 10.1167 16.0587 10.5047 16.836 11.28C17.6133 12.0553 18.0013 13.0007 18 14.116C18 15.2293 17.612 16.1743 16.836 16.951C16.0587 17.7277 15.1133 18.116 14 18.116ZM0 16.769V1.616C0 1.168 0.157333 0.786667 0.472 0.472C0.786667 0.157333 1.168 0 1.616 0H14.385C14.8317 0 15.2127 0.157333 15.528 0.472C15.8427 0.786667 16 1.168 16 1.616V7.56C15.8373 7.5 15.676 7.44867 15.516 7.406C15.3553 7.36333 15.1833 7.33 15 7.306V1.616C15 1.462 14.936 1.32067 14.808 1.192C14.68 1.06333 14.5387 0.999333 14.384 1H1.616C1.462 1 1.32067 1.064 1.192 1.192C1.06333 1.32 0.999333 1.46133 1 1.616V15.05H7.344C7.38933 15.3233 7.448 15.5907 7.52 15.852C7.59267 16.1133 7.69367 16.3627 7.823 16.6L7.789 16.634L6.654 15.808L5.308 16.769L3.962 15.808L2.616 16.769L1.269 15.808L0 16.769ZM2.77 12.269H7.479C7.51633 12.0857 7.56233 11.914 7.617 11.754C7.67167 11.594 7.73567 11.4323 7.809 11.269H2.77V12.269ZM2.77 8.5H10.08C10.4067 8.242 10.7567 8.027 11.13 7.855C11.5033 7.68233 11.9023 7.564 12.327 7.5H2.769L2.77 8.5Z" fill="#68188B"/>
</svg>
